<?xml version="1.0" encoding="utf-8"?>
<svg version="1.0" xmlns="http://www.w3.org/2000/svg" width="512.000000pt" height="512.000000pt" viewBox="0 0 512.000000 512.000000" preserveAspectRatio="xMidYMid meet" xmlns:bx="https://boxy-svg.com">
  <path d="M 152.863 54.043 Q 159.705 32.98 168.962 54.043 L 315.75 388.041 Q 325.007 409.104 308.908 409.104 L 53.624 409.104 Q 37.525 409.104 44.367 388.041 Z" bx:shape="triangle 37.525 32.98 287.482 376.124 0.425 0.056 1@165370f9" style="fill: rgb(81, 204, 234); paint-order: fill; stroke: rgba(255, 255, 255, 0); transform-box: fill-box; transform-origin: 50% 50%;" transform="matrix(0.794201, 0.607655, -0.328496, 1.00779, 23.854178, 0.103799)"/>
  <path d="M 77.357 -11.884 Q 84.159 -32.89 93.362 -11.884 L 239.291 321.213 Q 248.494 342.219 232.489 342.219 L -21.301 342.219 Q -37.306 342.219 -30.504 321.213 Z" bx:shape="triangle -37.306 -32.89 285.8 375.109 0.425 0.056 1@a3d30d90" style="fill: rgb(81, 204, 234); stroke-width: 1; transform-origin: 105.059px 159.915px; paint-order: stroke markers; fill-rule: nonzero; stroke: rgba(255, 255, 255, 0);" transform="matrix(-0.77665, 0.629932, 0.361134, 0.994669, 195.151946, 63.476781)"/>
  <text style="fill: rgb(51, 51, 51); font-family: Alegreya; font-size: 28px; white-space: pre;" x="248.844" y="362.732" transform="matrix(4.042712, 0, 0, 3.720585, -781.908325, -1056.851196)">n</text>
  <text style="fill: rgb(51, 51, 51); font-family: Alegreya; font-size: 150px; white-space: pre; stroke-width: 1; transform-origin: 163.42px 270.818px;" transform="matrix(0.999639, -0.026847, 0.026847, 0.999639, 1.24954, -20.522453)" x="118.075" y="335.645">D</text>
  <text style="fill: rgb(51, 51, 51); font-family: Alegreya; font-size: 150px; white-space: pre; stroke-width: 1; transform-origin: 163.42px 270.818px;" transform="matrix(0.999639, -0.026847, 0.026847, 0.999639, 156.308912, -20.522516)" x="118.075" y="335.645">D</text>
  <g transform="matrix(0.1, 0, 0, -0.1, -0.863074, 514.873108)" fill="#000000" stroke="none">
    <path d="M2453 4891 c-29 -14 -48 -31 -62 -58 -11 -22 -27 -46 -37 -54 -24 -20 -173 -223 -277 -377 -12 -18 -94 -130 -183 -250 -88 -119 -174 -237 -190 -262 -16 -25 -63 -90 -104 -146 -169 -228 -206 -278 -225 -309 -11 -17 -35 -49 -52 -69 -18 -20 -33 -41 -33 -46 0 -5 -23 -40 -51 -77 -28 -37 -59 -84 -69 -104 -11 -20 -39 -60 -65 -90 -25 -29 -54 -72 -66 -95 -11 -23 -27 -48 -36 -56 -9 -7 -55 -71 -103 -143 -48 -71 -102 -147 -119 -169 -38 -47 -41 -76 -7 -76 26 0 93 66 119 117 9 16 23 36 33 44 40 33 173 211 205 274 18 38 44 78 57 88 12 11 34 40 48 65 13 26 49 78 79 116 30 38 55 76 55 84 0 8 22 38 49 67 27 28 60 74 75 102 14 28 42 68 63 89 41 42 68 79 168 224 35 52 89 129 119 170 31 41 81 113 113 160 31 47 80 114 109 150 28 36 91 127 140 202 268 413 241 378 286 378 21 0 34 -10 57 -43 16 -24 41 -51 55 -61 14 -9 26 -23 26 -31 0 -7 14 -23 30 -35 17 -12 30 -27 30 -34 0 -7 16 -31 35 -53 19 -23 35 -45 35 -51 0 -10 56 -84 114 -149 39 -43 72 -55 82 -29 8 22 -53 144 -82 162 -13 9 -24 22 -24 29 0 6 -9 20 -21 31 -12 10 -30 36 -40 57 -11 20 -23 37 -27 37 -4 0 -16 15 -26 33 -28 47 -163 177 -202 193 -40 17 -30 17 -81 -5z"/>
    <path d="M2485 4749 c-9 -13 -8 -186 0 -199 3 -6 17 -10 29 -10 30 0 37 37 26 128 -10 76 -35 114 -55 81z"/>
    <path d="M 2494.38 4452.79 C 2488.75 4445.39 2492.77 4290.71 2503.22 4099.71 C 2505.63 4062.72 2507.24 4027.74 2507.24 4022.36 C 2507.24 4016.99 2505.63 3922.83 2503.22 3813.88 C 2500.81 3704.93 2498.4 3521.32 2497.59 3406.99 C 2496.79 3126.54 2505.63 3040.46 2537.78 3040.46 C 2550.65 3040.46 2553.06 3048.53 2557.08 3103.01 C 2559.49 3136.63 2559.49 3212.63 2556.27 3271.81 C 2553.06 3330.32 2553.06 3470.88 2557.08 3584.54 C 2565.11 3852.21 2564.31 4052.63 2554.66 4156.87 C 2549.84 4203.28 2546.63 4271.2 2546.63 4308.19 C 2546.63 4390.24 2532.16 4454.81 2512.87 4458.17 C 2505.63 4459.52 2497.59 4456.82 2494.38 4452.79 Z" style=""/>
    <path d="M2996 4301 c-7 -11 44 -111 88 -173 37 -52 165 -201 176 -206 4 -1 12 4 19 11 22 27 -47 145 -133 226 -20 19 -36 39 -36 44 0 6 -17 32 -37 58 -35 46 -64 61 -77 40z"/>
    <path d="M3344 3835 c-7 -16 111 -208 151 -245 14 -13 25 -29 25 -35 0 -6 24 -43 53 -81 29 -38 74 -100 100 -139 55 -82 100 -144 182 -250 33 -43 69 -90 80 -104 11 -14 65 -82 120 -151 55 -69 122 -154 149 -188 27 -34 53 -62 57 -62 5 0 19 -15 31 -33 59 -87 133 -183 248 -320 155 -184 162 -195 154 -229 -6 -30 26 -71 49 -62 20 7 37 49 37 92 0 47 -28 93 -110 178 -36 38 -81 90 -100 116 -90 120 -149 195 -170 213 -12 11 -39 45 -60 76 -21 31 -62 86 -91 121 -150 180 -496 625 -559 718 -24 36 -78 110 -119 165 -42 55 -89 119 -105 143 -52 76 -109 112 -122 77z"/>
    <path d="M662 2439 c-50 -51 -202 -276 -202 -298 0 -12 -9 -26 -20 -33 -11 -7 -36 -36 -56 -65 -28 -41 -37 -65 -41 -110 -5 -55 -3 -60 26 -87 17 -17 31 -35 31 -42 0 -14 100 -112 157 -153 22 -16 44 -34 47 -40 4 -6 13 -8 21 -5 7 3 18 -3 24 -15 24 -44 209 -201 237 -201 7 0 19 -8 26 -18 20 -28 83 -72 102 -72 10 0 20 -8 23 -17 2 -10 29 -36 60 -58 30 -22 74 -56 96 -76 96 -82 348 -262 384 -273 12 -4 51 -27 87 -51 74 -49 126 -71 150 -62 26 10 19 23 -26 50 -76 45 -422 303 -523 390 -34 30 -211 161 -278 207 -12 8 -38 28 -58 45 -20 16 -73 57 -118 89 -45 33 -85 64 -89 70 -15 23 -150 121 -180 130 -12 4 -23 15 -26 24 -3 9 -26 31 -51 47 -32 21 -48 41 -56 66 -11 34 -9 41 27 103 22 37 46 79 55 94 8 15 32 45 52 67 21 22 40 51 44 65 3 14 20 41 38 60 53 58 117 157 113 177 -6 31 -42 27 -76 -8z"/>
    <path d="M 2528.4 1813.66 C 2514.41 1774.63 2526.25 1629.43 2545.63 1604.45 C 2566.08 1579.47 2577.92 1602.89 2585.45 1685.64 C 2596.21 1791.8 2554.24 1883.92 2528.4 1813.66 Z" style=""/>
    <path d="M4565 1864 c-22 -15 -62 -48 -90 -74 -47 -44 -134 -115 -207 -168 -17 -12 -54 -44 -83 -70 -28 -26 -83 -73 -123 -105 -73 -58 -83 -75 -58 -97 12 -9 18 -7 33 9 9 12 23 21 29 21 7 0 35 19 64 43 28 23 80 65 113 93 34 27 82 65 107 82 46 33 87 65 209 165 72 59 97 101 70 118 -19 12 -20 12 -64 -17z"/>
    <path d="M 2553.49 1327.27 C 2530.23 1306.14 2522.48 1178.14 2530.23 931.104 C 2533.56 783.255 2537.99 609.8 2539.09 544.517 C 2540.2 448.514 2544.63 421.632 2560.14 401.791 C 2570.1 387.711 2584.5 378.111 2592.25 379.39 C 2615.51 383.87 2612.18 886.287 2586.71 1288.24 C 2584.5 1316.39 2565.67 1338.78 2553.49 1327.27 Z" style=""/>
    <path d="M3849 1272 c-29 -20 -47 -34 -98 -80 -20 -18 -100 -80 -179 -138 -78 -58 -159 -122 -180 -141 -20 -19 -50 -42 -67 -50 -16 -9 -55 -40 -86 -70 -31 -29 -79 -70 -107 -91 -72 -53 -186 -146 -262 -214 -36 -32 -82 -73 -103 -90 -62 -53 -67 -59 -67 -74 0 -9 11 -14 29 -14 29 0 87 38 179 119 56 48 108 89 198 156 37 28 86 68 108 91 41 41 107 94 345 275 69 53 149 116 176 142 28 25 69 62 93 82 23 21 45 48 48 61 4 15 14 24 25 24 10 0 19 7 19 15 0 20 -39 19 -71 -3z"/>
    <path d="M1854 749 c-11 -18 25 -58 119 -134 50 -41 108 -87 127 -103 19 -16 80 -61 135 -100 55 -39 122 -89 150 -112 101 -82 195 -106 252 -64 33 24 42 61 18 70 -9 4 -34 1 -54 -6 -29 -9 -43 -9 -59 -1 -24 13 -290 199 -483 339 -131 94 -194 128 -205 111z"/>
  </g>
  <defs>
    <style bx:fonts="Alegreya">@import url(https://fonts.googleapis.com/css2?family=Alegreya%3Aital%2Cwght%400%2C400..900%3B1%2C400..900&amp;display=swap);</style>
  </defs>
</svg>